<svg width="100" height="100" viewBox="0 0 100 100" fill="none" xmlns="http://www.w3.org/2000/svg">
<g clip-path="url(#clip0_3609_1374)">
<path fill-rule="evenodd" clip-rule="evenodd" d="M0 13.8213L24.5668 57.9453V84.2527H39.3162V57.9453L63.976 13.8213H47.9704L32.1508 43.8869H31.8252L15.9591 13.8213H0ZM52.996 72.6532C55.0433 76.6898 58.021 79.8449 61.8829 82.0255C65.7447 84.2062 70.351 85.3198 75.7482 85.3662C79.517 85.3662 82.8205 84.8558 85.5656 83.8814C88.3108 82.9071 90.6837 81.608 92.6379 79.984C94.5455 78.3601 96.0809 76.5506 97.2441 74.6019C98.3608 72.6532 99.1518 70.7046 99.524 68.8023L99.6636 68.2455H86.5427L86.4496 68.5239C86.124 69.4982 85.5191 70.4726 84.5885 71.4005C83.658 72.3285 82.4948 73.1172 81.0524 73.7204C79.6566 74.3236 77.935 74.6483 75.9809 74.6483C73.4683 74.6483 71.3746 74.0916 69.56 73.0244C67.7454 71.9573 66.3961 70.3798 65.419 68.3383C64.5109 66.441 64.0449 64.1829 63.9836 61.5642H100.175V57.1101C100.175 51.8208 99.1518 47.2274 97.1046 43.2836C95.0573 39.3398 92.1726 36.324 88.4504 34.1433C84.6816 31.9627 80.2614 30.8955 75.1433 30.8955C69.9787 30.8955 65.5586 32.009 61.7898 34.2361C58.021 36.4632 55.0898 39.6182 52.996 43.7012C50.9023 47.7842 49.8786 52.6095 49.8786 58.1772V58.2236C49.8786 63.7913 50.9023 68.5703 52.996 72.6532ZM64.1423 52.4703H86.3843C86.1764 50.6643 85.7639 49.0759 85.1469 47.6914C84.2163 45.6035 82.867 44.0724 81.192 43.0516C79.517 42.0309 77.5628 41.4741 75.3295 41.4741C73.0961 41.4741 71.1419 42.0309 69.4204 43.098C67.6989 44.1652 66.3496 45.7427 65.419 47.7842C64.7766 49.1569 64.3554 50.7102 64.1423 52.4703Z" fill="white" style="fill:white;fill:white;fill-opacity:1;"/>
</g>
<defs>
<clipPath id="clip0_3609_1374">
<rect width="100" height="100" fill="white" style="fill:white;fill:white;fill-opacity:1;"/>
</clipPath>
</defs>
</svg>
