<svg width="102" height="32" viewBox="0 0 102 32" fill="none" xmlns="http://www.w3.org/2000/svg">
<g clip-path="url(#clip0_3483_1133)">
<path d="M93.0764 2.96716H96.7945V3.83258H94.1299V5.56343H96.5673V6.40824H94.1299V8.77785H93.0971V2.96716H93.0764Z" fill="#0D0D0D" style="fill:#0D0D0D;fill:color(display-p3 0.0500 0.0500 0.0500);fill-opacity:1;"/>
<path d="M97.7858 3.75009C97.6825 3.64706 97.6205 3.52343 97.6205 3.35859C97.6205 3.21435 97.6825 3.07011 97.7858 2.96709C97.8891 2.86406 98.0337 2.80225 98.1783 2.80225C98.3435 2.80225 98.4674 2.86406 98.5707 2.96709C98.674 3.07011 98.736 3.19375 98.736 3.35859C98.736 3.50283 98.674 3.64706 98.5707 3.75009C98.4674 3.85312 98.3228 3.91493 98.1783 3.91493C98.013 3.89433 97.8891 3.85312 97.7858 3.75009ZM97.6825 4.51248H98.6947V8.77778H97.6825V4.51248Z" fill="#0D0D0D" style="fill:#0D0D0D;fill:color(display-p3 0.0500 0.0500 0.0500);fill-opacity:1;"/>
<path d="M10.9064 19.8429L0 0.247314H7.08505L14.1288 13.5995H14.2734L21.2965 0.247314H28.4022L17.4544 19.8429V31.5261H10.9064V19.8429Z" fill="#0D0D0D" style="fill:#0D0D0D;fill:color(display-p3 0.0500 0.0500 0.0500);fill-opacity:1;"/>
<path d="M27.4729 30.537C25.7584 29.5685 24.4364 28.1674 23.5276 26.3747C22.5981 24.5614 22.1436 22.4391 22.1436 19.9665V19.9459C22.1436 17.4732 22.5981 15.3303 23.5276 13.517C24.4571 11.7037 25.7584 10.3026 27.4316 9.31354C29.1047 8.32448 31.0671 7.82996 33.3599 7.82996C35.6321 7.82996 37.5944 8.30388 39.2676 9.27233C40.92 10.2408 42.2007 11.5801 43.1096 13.3316C44.0185 15.083 44.4729 17.1229 44.4729 19.4719V21.45H25.2833V17.4114H41.4571L38.4207 21.1616V18.7095C38.4207 17.3496 38.2141 16.2163 37.801 15.2891C37.3878 14.3618 36.7888 13.6819 36.0452 13.2285C35.3016 12.7752 34.434 12.528 33.4425 12.528C32.451 12.528 31.5835 12.7752 30.8192 13.2491C30.0549 13.7231 29.4559 14.4236 29.0428 15.3303C28.609 16.2575 28.4024 17.3702 28.4024 18.7095V21.1822C28.4024 22.4597 28.609 23.5518 29.0428 24.4584C29.4765 25.365 30.0756 26.0656 30.8812 26.5396C31.6868 27.0135 32.6163 27.2607 33.7317 27.2607C34.5993 27.2607 35.3635 27.1165 35.9832 26.8486C36.6236 26.5808 37.14 26.2305 37.5531 25.8184C37.9662 25.4063 38.2347 24.9735 38.3793 24.5408L38.4207 24.4172H44.2457L44.1837 24.6645C44.0185 25.5093 43.6673 26.3747 43.1716 27.2401C42.6552 28.1056 41.9735 28.9092 41.1266 29.6303C40.259 30.3515 39.2056 30.9285 37.9869 31.3612C36.7682 31.7939 35.3016 32.0206 33.6284 32.0206C31.2323 31.9999 29.1874 31.5054 27.4729 30.537Z" fill="#0D0D0D" style="fill:#0D0D0D;fill:color(display-p3 0.0500 0.0500 0.0500);fill-opacity:1;"/>
<path d="M41.4153 0.247314H48.6656L55.8333 24.8088H55.9572L63.1249 0.247314H70.3959L59.9026 31.5261H51.888L41.4153 0.247314Z" fill="#0D0D0D" style="fill:#0D0D0D;fill:color(display-p3 0.0500 0.0500 0.0500);fill-opacity:1;"/>
<path d="M72.2554 30.537C70.541 29.5685 69.219 28.1674 68.3101 26.3747C67.3806 24.5614 66.9261 22.4391 66.9261 19.9665V19.9459C66.9261 17.4732 67.3806 15.3303 68.3101 13.517C69.2396 11.7037 70.541 10.3026 72.2141 9.31354C73.8873 8.32448 75.8496 7.82996 78.1424 7.82996C80.4146 7.82996 82.3769 8.30388 84.0501 9.27233C85.7026 10.2408 86.9833 11.5801 87.8921 13.3316C88.801 15.083 89.2554 17.1229 89.2554 19.4719V21.45H70.0659V17.4114H86.2396L83.2238 21.1616V18.7095C83.2238 17.3496 83.0173 16.2163 82.6042 15.2891C82.191 14.3618 81.592 13.6819 80.8484 13.2285C80.1048 12.7752 79.2372 12.528 78.2457 12.528C77.2542 12.528 76.3867 12.7752 75.6224 13.2491C74.8581 13.7231 74.2591 14.4236 73.846 15.3303C73.4122 16.2575 73.2056 17.3702 73.2056 18.7095V21.1822C73.2056 22.4597 73.4122 23.5518 73.846 24.4584C74.2797 25.365 74.8788 26.0656 75.6843 26.5396C76.4899 27.0135 77.4195 27.2607 78.5349 27.2607C79.4025 27.2607 80.1667 27.1165 80.7864 26.8486C81.4268 26.5808 81.9432 26.2305 82.3563 25.8184C82.7694 25.4063 83.0379 24.9735 83.1825 24.5408L83.2238 24.4172H89.0282L88.9662 24.6645C88.801 25.5093 88.4498 26.3747 87.9541 27.2401C87.4377 28.1056 86.756 28.9092 85.9091 29.6303C85.0416 30.3515 83.9881 30.9285 82.7694 31.3612C81.5507 31.7939 80.0841 32.0206 78.411 32.0206C75.9942 31.9999 73.9699 31.5054 72.2554 30.537Z" fill="#0D0D0D" style="fill:#0D0D0D;fill:color(display-p3 0.0500 0.0500 0.0500);fill-opacity:1;"/>
<path d="M96.0305 11.9099C92.7462 11.9099 90.0609 9.23117 90.0609 5.95493C90.0609 2.67869 92.7462 0 96.0305 0C99.3149 0 102 2.67869 102 5.95493C102 9.23117 99.3149 11.9099 96.0305 11.9099ZM96.0305 0.618158C93.0767 0.618158 90.6806 3.00837 90.6806 5.95493C90.6806 8.90148 93.0767 11.2917 96.0305 11.2917C98.9844 11.2917 101.38 8.90148 101.38 5.95493C101.38 3.00837 98.9844 0.618158 96.0305 0.618158Z" fill="#0D0D0D" style="fill:#0D0D0D;fill:color(display-p3 0.0500 0.0500 0.0500);fill-opacity:1;"/>
</g>
<defs>
<clipPath id="clip0_3483_1133">
<rect width="102" height="32" fill="white" style="fill:white;fill:white;fill-opacity:1;"/>
</clipPath>
</defs>
</svg>
